inDegrees=yes
name=ik_coleta1_trike_filtrado_mov
DataType=double
version=3
OpenSimVersion=4.4-2022-07-23-0e9fedc
endheader
time	pelvis_tilt	pelvis_tx	pelvis_ty	hip_flexion_r	knee_angle_r	ankle_angle_r	hip_flexion_l	knee_angle_l	ankle_angle_l	lumbar_extension	gearToGround_coord_0	rightPedalToGear_coord_0	leftPedalToGear_coord_0
26.83844995498657	52.5	-0.7	0.0500000000000003	85.48272367985879	-49.94995093310104	-1.039076492892845e-12	80.38799999999991	-84.66000000000004	5.05043721578303e-13	2.071017320375504e-12	0	-114.0000000000003	-139.067795130823
26.84745693206787	52.5	-0.7	0.0500000000000003	84.69068934725203	-49.28618939864872	-1.039076492892845e-12	80.38799999999991	-84.66000000000004	5.05043721578303e-13	2.071017320375504e-12	0	-114.0000000000003	-139.067795130823
26.85844874382019	52.5	-0.7	0.0500000000000003	83.87791267383854	-48.63412012093456	-1.039076492892845e-12	80.38799999999991	-84.66000000000004	5.05043721578303e-13	2.071017320375504e-12	0	-114.0000000000003	-139.067795130823
26.86244606971741	52.5	-0.7	0.0500000000000003	83.04658252780332	-47.99406138715557	-1.039076492892845e-12	80.38799999999991	-84.66000000000004	5.05043721578303e-13	2.071017320375504e-12	0	-114.0000000000003	-139.067795130823
26.8684389591217	52.5	-0.7	0.0500000000000003	82.1991301664599	-47.36683842884503	-1.039076492892845e-12	80.38799999999991	-84.66000000000004	5.05043721578303e-13	2.071017320375504e-12	0	-114.0000000000003	-139.067795130823
26.88045215606689	52.5	-0.7	0.0500000000000003	81.33817388603234	-46.75364734352895	-1.039076492892845e-12	80.38799999999991	-84.66000000000004	5.05043721578303e-13	2.071017320375504e-12	0	-114.0000000000003	-139.067795130823
26.8874397277832	52.5	-0.7	0.0500000000000003	80.46655624778006	-46.15596101743581	-1.039076492892845e-12	80.38799999999991	-84.66000000000004	5.05043721578303e-13	2.071017320375504e-12	0	-114.0000000000003	-139.067795130823
26.89844083786011	52.5	-0.7	0.0500000000000003	79.57839473952563	-45.57142986234327	-1.039076492892845e-12	80.38799999999991	-84.66000000000004	5.05043721578303e-13	2.071017320375504e-12	0	-114.0000000000003	-139.067795130823
26.90450501441956	52.5	-0.7	0.0500000000000003	78.69144841714315	-45.00785920337273	-1.039076492892845e-12	80.38799999999991	-84.66000000000004	5.05043721578303e-13	2.071017320375504e-12	0	-114.0000000000003	-139.067795130823
26.90844392776489	52.5	-0.7	0.0500000000000003	77.80361949361634	-44.46495077501623	-1.039076492892845e-12	80.38799999999991	-84.66000000000004	5.05043721578303e-13	2.071017320375504e-12	0	-114.0000000000003	-139.067795130823
26.91345500946045	52.5	-0.7	0.0500000000000003	76.91852633428147	-43.9447958646458	-1.039076492892845e-12	80.38799999999991	-84.66000000000004	5.05043721578303e-13	2.071017320375504e-12	0	-114.0000000000003	-139.067795130823
26.92246794700623	52.5	-0.7	0.0500000000000003	76.03978309902583	-43.44959655352802	-1.039076492892845e-12	80.38799999999991	-84.66000000000004	5.05043721578303e-13	2.071017320375504e-12	0	-114.0000000000003	-139.067795130823
26.92645502090454	52.5	-0.7	0.0500000000000003	75.17099021686127	-42.98165999637619	-1.039076492892845e-12	80.38799999999991	-84.66000000000004	5.05043721578303e-13	2.071017320375504e-12	0	-114.0000000000003	-139.067795130823
26.93345308303833	52.5	-0.7	0.0500000000000003	74.31564703201519	-42.54330407750102	-1.039076492892845e-12	80.38799999999991	-84.66000000000004	5.05043721578303e-13	2.071017320375504e-12	0	-114.0000000000003	-139.067795130823
26.93849277496338	52.5	-0.7	0.0500000000000003	73.47698181815734	-42.13667889099595	-1.039076492892845e-12	80.38799999999991	-84.66000000000004	5.05043721578303e-13	2.071017320375504e-12	0	-114.0000000000003	-139.067795130823
26.94945096969604	52.5	-0.7	0.0500000000000003	72.65784789892847	-41.7636522853925	-1.039076492892845e-12	80.38799999999991	-84.66000000000004	5.05043721578303e-13	2.071017320375504e-12	0	-114.0000000000003	-139.067795130823
26.95344996452332	52.5	-0.7	0.0500000000000003	71.8607271333255	-41.42579968616353	-1.039076492892845e-12	80.38799999999991	-84.66000000000004	5.05043721578303e-13	2.071017320375504e-12	0	-114.0000000000003	-139.067795130823
26.95845603942871	52.5	-0.7	0.0500000000000003	71.08775972785077	-41.12441965944348	-1.039076492892845e-12	80.38799999999991	-84.66000000000004	5.05043721578303e-13	2.071017320375504e-12	0	-114.0000000000003	-139.067795130823
26.97346186637878	52.5	-0.7	0.0500000000000003	70.3407462398209	-40.86052476016513	-1.039076492892845e-12	80.38799999999991	-84.66000000000004	5.05043721578303e-13	2.071017320375504e-12	0	-114.0000000000003	-139.067795130823
26.97846388816833	52.5	-0.7	0.0500000000000003	69.62112329231543	-40.63480964196854	-1.039076492892845e-12	80.38799999999991	-84.66000000000004	5.05043721578303e-13	2.071017320375504e-12	0	-114.0000000000003	-139.067795130823
26.98344898223877	52.5	-0.7	0.0500000000000003	68.92995139732946	-40.44763288121879	-1.039076492892845e-12	80.38799999999991	-84.66000000000004	5.05043721578303e-13	2.071017320375504e-12	0	-114.0000000000003	-139.067795130823
26.98745083808899	52.5	-0.7	0.0500000000000003	68.26793297020518	-40.29902766218657	-1.039076492892845e-12	80.38799999999991	-84.66000000000004	5.05043721578303e-13	2.071017320375504e-12	0	-114.0000000000003	-139.067795130823
26.99246311187744	52.5	-0.7	0.0500000000000003	67.63545098275139	-40.18873113448723	-1.039076492892845e-12	80.38799999999991	-84.66000000000004	5.05043721578303e-13	2.071017320375504e-12	0	-114.0000000000003	-139.067795130823
27.00145578384399	52.5	-0.7	0.0500000000000003	67.03975539790015	-40.11999730795371	-1.039076492892845e-12	80.38799999999991	-84.66000000000004	5.05043721578303e-13	2.071017320375504e-12	0	-114.0000000000003	-139.067795130823
27.0074679851532	52.5	-0.7	0.0500000000000003	66.46415381029361	-40.08319003250605	-1.039076492892845e-12	80.38799999999991	-84.66000000000004	5.05043721578303e-13	2.071017320375504e-12	0	-114.0000000000003	-139.067795130823
27.01145195960999	52.5	-0.7	0.0500000000000003	65.91814702696372	-40.08300456051965	-1.039076492892845e-12	80.38799999999991	-84.66000000000004	5.05043721578303e-13	2.071017320375504e-12	0	-114.0000000000003	-139.067795130823
27.0184497833252	52.5	-0.7	0.0500000000000003	65.40190843470099	-40.11889718222184	-1.039076492892845e-12	80.38799999999991	-84.66000000000004	5.05043721578303e-13	2.071017320375504e-12	0	-114.0000000000003	-139.067795130823
27.02448201179504	52.5	-0.7	0.0500000000000003	64.91500614745382	-40.18997400441548	-1.039076492892845e-12	80.38799999999991	-84.66000000000004	5.05043721578303e-13	2.071017320375504e-12	0	-114.0000000000003	-139.067795130823
27.03348779678345	52.5	-0.7	0.0500000000000003	64.45688728191682	-40.29533171428767	-1.039076492892845e-12	80.38799999999991	-84.66000000000004	5.05043721578303e-13	2.071017320375504e-12	0	-114.0000000000003	-139.067795130823
27.04044580459595	52.5	-0.7	0.0500000000000003	64.02699343416704	-40.43414550360055	-1.039076492892845e-12	80.38799999999991	-84.66000000000004	5.05043721578303e-13	2.071017320375504e-12	0	-114.0000000000003	-139.067795130823
27.04645299911499	52.5	-0.7	0.0500000000000003	63.62482933302238	-40.60568495467925	-1.039076492892845e-12	80.38799999999991	-84.66000000000004	5.05043721578303e-13	2.071017320375504e-12	0	-114.0000000000003	-139.067795130823
27.05144691467285	52.5	-0.7	0.0500000000000003	63.25904761293556	-40.82400216296198	-1.039076492892845e-12	80.38799999999991	-84.66000000000004	5.05043721578303e-13	2.071017320375504e-12	0	-114.0000000000003	-139.067795130823
27.05746412277222	52.5	-0.7	0.0500000000000003	62.90211414231297	-41.04432675908492	-1.039076492892845e-12	80.38799999999991	-84.66000000000004	5.05043721578303e-13	2.071017320375504e-12	0	-114.0000000000003	-139.067795130823
27.06345176696777	52.5	-0.7	0.0500000000000003	62.58053104814032	-41.30961645576494	-1.039076492892845e-12	80.38799999999991	-84.66000000000004	5.05043721578303e-13	2.071017320375504e-12	0	-114.0000000000003	-139.067795130823
27.06750297546387	52.5	-0.7	0.0500000000000003	62.28506317470779	-41.60479892516088	-1.039076492892845e-12	80.38799999999991	-84.66000000000004	5.05043721578303e-13	2.071017320375504e-12	0	-114.0000000000003	-139.067795130823
27.07545709609985	52.5	-0.7	0.0500000000000003	62.01508675342795	-41.92875839366941	-1.039076492892845e-12	80.38799999999991	-84.66000000000004	5.05043721578303e-13	2.071017320375504e-12	0	-114.0000000000003	-139.067795130823
27.0824499130249	52.5	-0.7	0.0500000000000003	61.76997671265485	-42.28035520491236	-1.039076492892845e-12	80.38799999999991	-84.66000000000004	5.05043721578303e-13	2.071017320375504e-12	0	-114.0000000000003	-139.067795130823
27.08747482299805	52.5	-0.7	0.0500000000000003	61.5489585830526	-42.65826714504877	-1.039076492892845e-12	80.38799999999991	-84.66000000000004	5.05043721578303e-13	2.071017320375504e-12	0	-114.0000000000003	-139.067795130823
27.09346675872803	52.5	-0.7	0.0500000000000003	61.3511200414546	-43.0610968742931	-1.039076492892845e-12	80.38799999999991	-84.66000000000004	5.05043721578303e-13	2.071017320375504e-12	0	-114.0000000000003	-139.067795130823
27.09746789932251	52.5	-0.7	0.0500000000000003	61.17546708899323	-43.48748432645814	-1.039076492892845e-12	80.38799999999991	-84.66000000000004	5.05043721578303e-13	2.071017320375504e-12	0	-114.0000000000003	-139.067795130823
27.10344076156616	52.5	-0.7	0.0500000000000003	61.02098562500357	-43.93615626114394	-1.039076492892845e-12	80.38799999999991	-84.66000000000004	5.05043721578303e-13	2.071017320375504e-12	0	-114.0000000000003	-139.067795130823
27.10744690895081	52.5	-0.7	0.0500000000000003	60.88668889863141	-44.4059170422549	-1.039076492892845e-12	80.38799999999991	-84.66000000000004	5.05043721578303e-13	2.071017320375504e-12	0	-114.0000000000003	-139.067795130823
27.11144590377808	52.5	-0.7	0.0500000000000003	60.77264556535165	-44.90861959291846	-1.039076492892845e-12	80.38799999999991	-84.66000000000004	5.05043721578303e-13	2.071017320375504e-12	0	-114.0000000000003	-139.067795130823
27.11645007133484	52.5	-0.7	0.0500000000000003	60.67640502562004	-45.41982013211113	-1.039076492892845e-12	80.38799999999991	-84.66000000000004	5.05043721578303e-13	2.071017320375504e-12	0	-114.0000000000003	-139.067795130823
